<svg xmlns="http://www.w3.org/2000/svg" viewBox="0 0 900 900" role="img" aria-label="Anubis artwork">
  <defs>
    <radialGradient id="g" cx="50%" cy="45%" r="55%"><stop offset="0" stop-color="#3a2714"/><stop offset=".45" stop-color="#16100a"/><stop offset="1" stop-color="#050403"/></radialGradient>
    <linearGradient id="gold" x1="0" x2="1"><stop stop-color="#8c6230"/><stop offset=".5" stop-color="#f0d09a"/><stop offset="1" stop-color="#6f451d"/></linearGradient>
    <filter id="blur"><feGaussianBlur stdDeviation="8"/></filter>
  </defs>
  <rect width="900" height="900" fill="none"/>
  <circle cx="510" cy="405" r="270" fill="none" stroke="url(#gold)" stroke-width="3" opacity=".38"/>
  <circle cx="510" cy="405" r="225" fill="none" stroke="#c79a5a" stroke-width="1" stroke-dasharray="10 14" opacity=".28"/>
  <g opacity=".32" fill="#c79a5a" font-family="serif" font-size="26">
    <text x="300" y="180" transform="rotate(-18 300 180)">ANKH  TATTOO  MEDURI</text>
    <text x="315" y="650" transform="rotate(14 315 650)">REALISMO  BLACK  GREY</text>
  </g>
  <ellipse cx="520" cy="735" rx="190" ry="45" fill="#000" opacity=".6" filter="url(#blur)"/>
  <path d="M468 282 C415 338 390 420 395 510 C401 623 455 720 520 740 C590 712 650 622 657 510 C664 410 626 326 566 282 Z" fill="url(#g)" stroke="#8c6230" stroke-width="3"/>
  <path d="M420 300 C332 168 306 62 352 22 C420 110 462 206 478 308 Z" fill="#080706" stroke="url(#gold)" stroke-width="4"/>
  <path d="M590 300 C692 170 736 70 700 20 C620 104 580 210 570 308 Z" fill="#080706" stroke="url(#gold)" stroke-width="4"/>
  <path d="M445 355 C466 322 530 306 570 350 C555 396 510 420 455 382 Z" fill="#050403" stroke="#c79a5a" stroke-width="2"/>
  <path d="M482 390 C520 410 578 430 628 492 C570 520 500 510 430 477 C445 438 464 410 482 390 Z" fill="#0b0907" stroke="#7a5126" stroke-width="2"/>
  <path d="M475 360 C485 352 505 350 520 360" fill="none" stroke="#f0d09a" stroke-width="3" opacity=".75"/>
  <path d="M545 360 C555 352 575 352 590 363" fill="none" stroke="#f0d09a" stroke-width="3" opacity=".75"/>
  <circle cx="502" cy="365" r="6" fill="#e6bd78"/><circle cx="570" cy="366" r="6" fill="#e6bd78"/>
  <path d="M526 387 C518 425 510 470 512 520" fill="none" stroke="#c79a5a" stroke-width="3"/>
  <path d="M438 520 C485 552 555 555 620 520" fill="none" stroke="#8c6230" stroke-width="4"/>
  <path d="M400 540 C440 585 600 590 655 540" fill="none" stroke="url(#gold)" stroke-width="5" opacity=".7"/>
  <path d="M420 600 C470 635 585 637 635 600" fill="none" stroke="#c79a5a" stroke-width="2" stroke-dasharray="8 12" opacity=".6"/>
  <g opacity=".55" stroke="#c79a5a" stroke-width="2" fill="none">
    <path d="M460 245 C490 275 540 275 575 245"/>
    <path d="M450 685 L450 585"/><path d="M500 720 L505 585"/><path d="M565 710 L558 585"/><path d="M622 665 L610 555"/>
  </g>
</svg>
